<svg id="Layer_1" xmlns="http://www.w3.org/2000/svg" viewBox="0 0 488.5 90"><style>.st0,.st1{fill:#17a8e1}.st1{fill-rule:evenodd;clip-rule:evenodd}</style><path class="st0" d="M161.2 27.3v10.3c.9-1.6 2.3-3 4.1-4 1.6-.9 3.4-1.3 5.7-1.3 4 0 7.4 1.7 10 5 2.6 3.4 3.9 7.7 3.9 13.1 0 5.3-1.3 9.7-3.9 13.1-1.3 1.6-3 2.8-5.2 3.6-2.2.7-4.4 1.1-6.5 1.1-4.1 0-8-1.1-11.5-3.2-3.5-2.2-5.3-6.3-5.3-12.4V22.9h4.4c1.2 0 2.2.4 3.1 1.3.8.8 1.2 1.8 1.2 3.1zM175.9 50c0-3.1-.6-5.5-1.9-7.2-1.3-1.8-3.1-2.7-5.3-2.7-2.4 0-4.3.9-5.6 2.6-1.3 1.8-1.9 4.3-1.9 7.4 0 3.6.6 6.3 1.8 7.9 1.3 1.8 3.1 2.7 5.4 2.7 2.4 0 4.3-.9 5.6-2.7 1.3-1.9 1.9-4.5 1.9-8zm41.9-16.9v20.2c0 6.1-1.6 10.1-4.8 12-3.2 1.9-6.7 2.8-10.5 2.8-3.7-.2-7.1-1.2-10.2-3.1-3.1-1.9-4.6-5.8-4.6-11.8V33.1h9.1v22c0 2.1.6 3.6 1.8 4.5 1.2 1 2.6 1.4 4.1 1.4 1.6 0 3-.5 4.2-1.4 1.2-.9 1.9-2.5 1.9-4.5V37.5c0-1.2.4-2.2 1.2-3.1.8-.9 1.9-1.3 3.2-1.3h4.6zm4.1-10.1h4.7c1.2 0 2.2.4 3.1 1.3.9.9 1.3 1.9 1.3 3.1v2.7h-9.1V23zm0 10.1h4.7c1.2 0 2.2.4 3.1 1.3.9.9 1.3 1.9 1.3 3.1v30h-9.1V33.1zM234.6 23h4.7c1.2 0 2.2.4 3.1 1.2.9.8 1.3 1.8 1.3 3v40.2h-9.1V23zm35.3-.1h4.4c1.2 0 2.2.5 3.1 1.4.9.9 1.3 1.9 1.3 3v25.2c0 6.1-1.8 10.3-5.3 12.4-3.5 2.2-7.4 3.2-11.5 3.2-2.2 0-4.4-.4-6.6-1.1-2.2-.7-3.9-1.9-5.2-3.6-2.5-3.2-3.7-7.5-3.7-13.1 0-5.4 1.2-9.8 3.7-13.1 2.6-3.4 5.9-5 10-5 2.2 0 4 .4 5.7 1.3 1.7 1 3.1 2.4 4.1 4V22.9zM255.1 50c0 3.4.6 6.1 1.9 7.9 1.3 1.8 3.1 2.7 5.6 2.7 2.3 0 4.1-.9 5.4-2.7 1.2-1.8 1.8-4.4 1.8-7.9 0-3.1-.6-5.6-1.9-7.4-1.4-1.7-3.2-2.6-5.6-2.6-2.2 0-4 .9-5.3 2.7-1.2 1.8-1.9 4.2-1.9 7.3zm50.7 6.9h6.5c-1 3.6-2.8 6.4-5.4 8.3-2.7 2-6 3-10.1 3-4.9 0-8.8-1.6-11.5-4.8-2.8-3.1-4.1-7.5-4.1-13.3 0-5.5 1.3-9.8 4-12.9 2.8-3.2 6.6-4.8 11.5-4.8 5.2 0 9.2 1.6 12 4.7 2.8 3.2 4.1 7.6 4.1 13.3v1.4c0 .4 0 .7-.1.9h-22.4c.1 2.7.7 4.7 1.9 5.9 1.1 1.4 2.8 2.1 5 2.1 1.5 0 2.7-.3 3.8-.9.3-.1.5-.2.7-.5l.7-.7c.1-.3.4-.6 1-1 .5-.5 1.3-.7 2.4-.7zm-15.5-10.1h13.2c-.2-2.3-.8-4.1-1.8-5.2-1.1-1.2-2.7-1.8-4.8-1.8-1.9 0-3.4.6-4.7 1.8-1.2 1.2-1.9 2.9-1.9 5.2zm25 20.7V50.8c0-3.4.5-6.2 1.5-8.5s2.3-4.1 4.1-5.5c1.6-1.3 3.6-2.2 5.8-2.8 2.2-.6 4.5-.9 6.8-.9h1.2v9.2h-3c-2.5 0-4.4.6-5.6 1.8-1.2 1.2-1.8 3.1-1.8 5.7v17.7h-9zm35.8 0c-2.8.2-5.9.1-9.2-.1-3.3-.3-5-2.4-5-6.3V23h4.7c1.1 0 2.1.4 3 1.3.9.9 1.3 1.9 1.3 3.1v5.8h5.3V35c0 1.3-.4 2.3-1.3 3.2-.9.8-1.9 1.2-3.1 1.2h-.9v19.1c0 1.5.9 2.2 2.6 2.2h2.7v6.8zm2 0V50.8c0-3.4.5-6.2 1.5-8.5s2.3-4.1 4.1-5.5c1.6-1.3 3.6-2.2 5.8-2.8 2.2-.6 4.5-.9 6.8-.9h1.2v9.2h-3c-2.5 0-4.4.6-5.6 1.8-1.2 1.2-1.8 3.1-1.8 5.7v17.7h-9zm45-10.6h6.5c-.9 3.6-2.8 6.4-5.4 8.3-2.7 2-6 3-10.1 3-4.9 0-8.7-1.6-11.5-4.8-2.8-3.1-4.1-7.5-4.1-13.3 0-5.5 1.3-9.8 4-12.9 2.8-3.2 6.6-4.8 11.5-4.8 5.2 0 9.2 1.6 12 4.7 2.8 3.2 4.1 7.6 4.1 13.3v1.4c0 .4 0 .7-.1.9h-22.4c.1 2.7.7 4.7 1.9 5.9 1.1 1.4 2.8 2.1 5 2.1 1.5 0 2.7-.3 3.7-.9.3-.1.5-.2.7-.5l.7-.7c.1-.3.4-.6 1-1 .7-.5 1.5-.7 2.5-.7zm-15.5-10.1h13.2c-.2-2.3-.8-4.1-1.8-5.2-1.1-1.2-2.7-1.8-4.8-1.8-1.9 0-3.4.6-4.7 1.8-1.1 1.2-1.8 2.9-1.9 5.2zm55.2 20.7h-4.5c-1.3 0-2.3-.4-3.2-1.2-.8-.8-1.2-1.9-1.2-3.2V45.5c0-2.1-.6-3.6-1.9-4.5-1.3-.9-2.7-1.4-4.2-1.4-1.6 0-2.9.5-4.1 1.4-1.2.9-1.8 2.5-1.8 4.5v22h-9.1V47.3c0-5.9 1.5-9.8 4.6-11.8 3.1-2 6.4-3.1 10.2-3.2 3.8 0 7.3 1 10.5 3s4.8 6 4.8 12v20.2zm26.1-44.6h4.4c1.2 0 2.2.5 3.1 1.4.9.9 1.3 1.9 1.3 3v25.2c0 6.1-1.8 10.3-5.3 12.4-3.5 2.2-7.4 3.2-11.5 3.2-2.2 0-4.4-.4-6.6-1.1-2.2-.7-3.9-1.9-5.2-3.6-2.5-3.2-3.7-7.5-3.7-13.1 0-5.4 1.2-9.8 3.7-13.1 2.6-3.4 5.9-5 10-5 2.2 0 4.1.4 5.7 1.3 1.7 1 3.1 2.4 4.1 4V22.9zM449.1 50c0 3.4.6 6.1 1.9 7.9 1.3 1.8 3.1 2.7 5.6 2.7 2.3 0 4.1-.9 5.4-2.7 1.2-1.8 1.8-4.4 1.8-7.9 0-3.1-.6-5.6-1.9-7.4-1.4-1.7-3.2-2.6-5.6-2.6-2.2 0-4 .9-5.3 2.7-1.2 1.8-1.9 4.2-1.9 7.3z"/><path class="st1" d="M106.3 25.3c7.1.2 13.3 1.9 17.7 5.3 2.4 1.8 5 4.5 5.6 8.2.9 6.1-2.9 9.7-6.3 12.2.7 1.6 1.4 3 1.6 5 .4 4.6-1.3 7.5-3.1 9.8-.9 1.2-2 2.4-3.2 3.3-4.7 3.7-11.1 6.2-18.9 6.9-1.3.1-3 .2-4.7.2-.5 0-1.2-.1-1.6 0-.4.1-.6.6-1 1-2.1 2.4-5.3 4.2-8.4 5.5-2.8 1.1-5.8 1.8-9.3 2.1-.2 0-.2.1-.4.1-1.2.1-2.5 0-3.8 0-1.3 0-2.6 0-3.7-.1-2.9-.3-5.6-.9-8.1-1.8-4.3-1.6-8.1-3.9-10.5-7.4-7 1-14.5.3-20.4-1.2-6-1.6-11.1-4.1-15.2-7.4-2-1.7-3.9-3.5-5.4-5.9-1.5-2.3-2.6-5.2-2.6-8.5 0-6.9 3.9-11 8-14.4-1-1.7-2-3.5-2.3-5.6-.7-5 2-8.6 4.3-10.9 2.5-2.5 5.8-4.3 9.6-5.7 5.6-2 13-2.9 20.1-1.8 1.5.2 3.2.5 4.7 1 .5.1 1.2.5 1.5.4.2 0 .7-.6 1-1 3.6-3.8 8.6-6.2 14.4-7.7 1.6-.4 3.3-.8 5-1 2.5-.3 5.7-.3 8.6-.2 1 0 1.9.2 2.9.3 2.9.4 5.6 1 8.1 1.8 4.8 1.7 9.1 4.2 12.1 7.8 2.2 2.7 3.8 5.8 3.7 9.7z"/><path class="st0" d="M480.4 30h-1.1v-4.5c.4-.1 1-.1 1.7-.1.9 0 1.2.1 1.6.3.2.2.4.6.4 1 0 .5-.4.9-.9 1.1v.1c.4.2.7.5.8 1.1.1.7.2 1 .3 1.1h-1.1c-.1-.2-.2-.6-.4-1.1-.1-.5-.4-.7-.9-.7h-.5V30zm.1-2.6h.5c.6 0 1.1-.2 1.1-.7 0-.4-.3-.7-1-.7-.3 0-.5 0-.6.1v1.3z"/><path class="st0" d="M481.4 22.6c-2.8 0-5 2.3-5 5s2.3 5 5 5 5-2.3 5-5-2.2-5-5-5zm0 9.2c-2.3 0-4.1-1.9-4.1-4.1s1.9-4.1 4.1-4.1c2.3 0 4.1 1.9 4.1 4.1s-1.8 4.1-4.1 4.1z"/></svg>