<?xml version="1.0" encoding="UTF-8"?>
<svg width="265px" height="71px" viewBox="0 0 265 71" version="1.1" xmlns="http://www.w3.org/2000/svg" xmlns:xlink="http://www.w3.org/1999/xlink">
    <!-- Generator: Sketch 44.1 (41455) - http://www.bohemiancoding.com/sketch -->
    <title>Reversed Logo</title>
    <desc>Created with Sketch.</desc>
    <defs></defs>
    <g id="Symbols" stroke="none" stroke-width="1" fill="none" fill-rule="evenodd">
        <g id="ATD-Header" transform="translate(-80.000000, -74.000000)">
            <g id="Reversed-Logo" transform="translate(80.000000, 74.000000)">
                <g id="Page-1">
                    <polygon id="Fill-1" fill="#FFFFFF" points="0 71 264.554846 71 264.554846 0 0 0"></polygon>
                    <g id="Group-12" transform="translate(29.057018, 15.526187)" fill="#163962">
                        <path d="M8.86006579,3.72307705 C12.2701974,3.72307705 16.4613816,3.27030656 17.3575,7.97027377 C17.5794956,9.15865082 17.6364474,10.0094869 17.6364474,10.8032902 C17.6364474,16.6334377 14.7295833,19.4664541 8.86006579,18.900782 L8.86006579,3.72307705 Z M0.474210526,39.5128967 C1.87243421,39.3988311 3.26949561,39.2277328 4.6677193,39.2277328 C6.0647807,39.2277328 7.46184211,39.3988311 8.86006579,39.5128967 L8.86006579,21.3345689 L9.25059211,21.3345689 C10.4814474,23.4855197 12.0458772,26.0904049 12.8838816,27.6209787 L19.5367763,39.5128967 C21.2139474,39.3988311 22.8899561,39.2277328 24.5682895,39.2277328 C26.3000877,39.2277328 27.9772588,39.3988311 29.6544298,39.5128967 L27.4739912,36.0001426 C24.1196491,30.7356672 20.6548904,25.5247328 17.5794956,20.089159 C22.7783772,18.9566508 26.3000877,15.4450607 26.3000877,9.89542131 C26.3000877,6.04512623 24.6240789,3.4984377 21.435943,1.79909344 C19.0892982,0.552519672 15.0085307,0.665421311 12.380614,0.665421311 L0.474210526,0.665421311 L0.474210526,39.5128967 Z" id="Fill-2"></path>
                        <path d="M54.0948684,28.9028197 L57.6305263,19.7461475 L60.9778947,28.9028197 L54.0948684,28.9028197 Z M61.8426316,31.2993607 C62.8584649,33.9310164 63.6476535,36.6045738 64.5123904,39.512082 C65.6026096,39.4329344 66.6567982,39.3142131 67.7470175,39.3142131 C68.8372368,39.3142131 69.8914254,39.4329344 70.9816447,39.512082 L60.4885746,12.2026885 C60.0004167,12.2806721 59.5482895,12.319082 59.0589693,12.319082 C58.5696491,12.319082 58.1198465,12.2806721 57.6305263,12.2026885 L46.8736184,39.4329344 C47.4756798,39.3945246 48.0765789,39.3142131 48.6786404,39.3142131 C49.2795395,39.3142131 49.8444079,39.3945246 50.445307,39.4329344 C51.1601096,36.7209672 52.101557,34.2860164 53.0790351,31.2993607 L61.8426316,31.2993607 Z" id="Fill-4"></path>
                        <path d="M103.580248,39.5124311 C106.740489,30.2777754 110.426081,21.4761033 114.073318,12.5557098 C113.509612,12.6348574 112.90755,12.6732672 112.343844,12.6732672 C111.780138,12.6732672 111.178077,12.6348574 110.614371,12.5557098 C108.582704,19.0795623 106.137265,25.563841 103.580248,32.006218 C101.324261,25.4835295 98.7660811,19.0795623 96.9227039,12.5557098 C95.8324846,12.6348574 94.7039101,12.7535787 93.6136908,12.7535787 C92.5223092,12.7535787 91.3948969,12.6348574 90.3035154,12.5557098 C93.8391732,21.4761033 97.2237346,30.355759 100.382814,39.5124311 C100.910489,39.4332836 101.43584,39.3145623 102.001871,39.3145623 C102.527221,39.3145623 103.053735,39.4332836 103.580248,39.5124311" id="Fill-6"></path>
                        <path d="M138.231904,12.555477 L138.231904,39.3143295 L152.561662,39.3143295 C152.487276,38.7649525 152.374535,38.1760016 152.374535,37.6254607 C152.374535,37.0749197 152.487276,36.4871328 152.561662,35.9365918 C150.26732,36.2496902 147.70914,36.4452311 143.873614,36.4871328 L143.873614,26.5040672 L147.785851,26.5040672 C149.478132,26.5040672 151.019316,26.6611984 152.410566,26.8590672 C152.33618,26.3085262 152.223439,25.7207393 152.223439,25.1701984 C152.223439,24.6196574 152.33618,24.0283787 152.410566,23.4790016 C151.019316,23.6768705 149.478132,23.8328377 147.785851,23.8328377 L143.873614,23.8328377 L143.873614,15.3861656 C147.70914,15.3058541 150.26732,15.6201164 152.561662,15.9355426 C152.487276,15.3861656 152.374535,14.7948869 152.374535,14.2443459 C152.374535,13.6949689 152.487276,13.106018 152.561662,12.555477 L138.231904,12.555477 Z" id="Fill-8"></path>
                        <path d="M181.038818,39.432818 C181.5293,39.3944082 182.054651,39.3140967 182.543971,39.3140967 C183.033292,39.3140967 183.559805,39.3944082 184.049125,39.432818 L184.049125,20.4141295 L188.148489,24.895277 C192.397787,29.5684738 196.461121,34.4046213 200.821998,39.4712279 L204.019432,39.5119656 L204.019432,12.5552443 C203.531274,12.6355557 203.003599,12.6739656 202.516603,12.6739656 C202.027283,12.6739656 201.50077,12.6355557 201.01145,12.5552443 L201.01145,30.9465721 C195.707963,24.6194246 190.103445,18.6461131 184.762765,12.5552443 L181.038818,12.5552443 L181.038818,39.432818 Z" id="Fill-10"></path>
                    </g>
                </g>
            </g>
        </g>
    </g>
</svg>