<?xml version="1.0" encoding="UTF-8"?>
<svg width="1026px" height="300px" viewBox="0 0 1026 300" version="1.1" xmlns="http://www.w3.org/2000/svg" xmlns:xlink="http://www.w3.org/1999/xlink">
    <!-- Generator: Sketch 41.2 (35397) - http://www.bohemiancoding.com/sketch -->
    <title>Combined Shape</title>
    <desc>Created with Sketch.</desc>
    <defs>
        <linearGradient x1="-1.11022302e-14%" y1="50%" x2="100%" y2="50%" id="linearGradient-1">
            <stop stop-color="#FEEFB5" offset="0%"></stop>
            <stop stop-color="#E77C67" offset="100%"></stop>
        </linearGradient>
    </defs>
    <g id="Page-1" stroke="none" stroke-width="1" fill="none" fill-rule="evenodd">
        <path d="M948.233535,151.323605 C946.027309,147.869184 931.275985,125.210708 917.371562,114.739745 C903.41898,104.240964 876.784231,95.8782756 876.784231,95.8782756 C876.784231,95.8782756 899.673726,111.062144 913.505316,121.847204 C926.450122,131.898583 944.901831,148.501973 948.050645,151.347746 C947.953456,151.360715 947.903354,151.36766 947.903354,151.36766 C947.903354,151.36766 947.971634,151.377091 948.103484,151.395506 C948.373312,151.639438 948.516013,151.769003 948.516013,151.769003 C948.516013,151.769003 948.441082,151.649275 948.296652,151.422554 C951.677318,151.897005 976.091084,155.375286 991.839964,159.053186 C1005.28658,162.191259 1026.03671,168.219662 1026.03671,168.219662 C1026.03671,168.219662 1005.63856,155.144358 990.888526,151.587876 C975.655695,147.923644 951.339942,150.917567 948.233535,151.323605 Z M582.660827,57.9802662 C582.660827,57.9802662 767.64116,-31.1905492 898.873529,12.8085344 C906.408033,15.3300034 921.34505,1.59955863 933.378259,7.95828504 C937.667977,10.2154953 939.790837,17.8624832 941.479226,22.5420654 C942.02369,24.0670586 924.08937,8.33815701 924.248859,28.636533 C933.900725,44.5195856 942.452662,25.0910613 942.760642,26.3517958 C943.998061,31.3892284 946.489397,37.0212433 948.744248,38.1938915 C1010.58768,70.5490735 997.135566,109.819026 997.135566,109.819026 C997.135566,109.819026 1001.28229,81.0753807 940.670779,53.4052864 C935.451623,51.0269575 925.486278,56.8406503 917.522802,52.568467 C910.230282,48.6596395 909.79581,37.4066206 904.62065,35.7164656 C771.276421,-7.67702493 582.660827,57.9802662 582.660827,57.9802662 Z M349.345273,179.690144 C349.345273,179.690144 411.612177,127.339382 458.793574,107.861309 C501.553261,90.2000155 574.428968,81.5400357 574.428968,81.5400357 C574.428968,81.5400357 506.079464,101.893466 464.254715,119.752954 C417.760773,139.594382 349.345273,179.690144 349.345273,179.690144 Z M0,184.674174 C0,184.674174 107.19345,159.360387 177.005858,157.455522 C246.658777,155.539646 354.86416,174.439652 354.86416,174.439652 C354.86416,174.439652 251.76794,167.882732 185.838277,169.363682 C113.133059,171.004288 0,184.674174 0,184.674174 Z M889.464197,139.550339 C889.464197,139.550339 794.578938,145.011687 737.245209,129.062569 C694.419526,117.143398 633.230551,82.4208982 633.230551,82.4208982 C633.230551,82.4208982 670.595093,97.1423133 695.090482,104.811323 C768.582148,127.818351 889.464197,139.550339 889.464197,139.550339 Z M392.778116,196.045008 C392.778116,196.045008 373.644874,209.02672 359.593299,210.744402 C344.997259,212.528148 322.575233,203.570877 322.575233,203.570877 C322.575233,203.570877 343.853334,204.264557 357.338447,202.76709 C371.324027,201.203559 392.778116,196.045008 392.778116,196.045008 Z M956.797369,177.389441 C956.797369,177.389441 948.041945,182.724164 942.971278,180.494481 C938.52757,178.556584 935.755753,170.33153 935.755753,170.33153 C935.755753,170.33153 941.530373,174.823929 945.902585,176.18376 C949.994316,177.466516 956.797369,177.389441 956.797369,177.389441 Z M44.775855,294.750059 L63.4086294,294.750059 L63.4086294,298.367101 L40.7061226,298.367101 L40.7061226,258.348415 L44.775855,258.348415 L44.775855,294.750059 Z M173.944759,294.750059 L195.343852,294.750059 L195.343852,298.367101 L169.869527,298.367101 L169.869527,258.348415 L194.661897,258.348415 L194.661897,261.965457 L173.944759,261.965457 L173.944759,275.756461 L193.308986,275.756461 L193.308986,279.312943 L173.944759,279.312943 L173.944759,294.750059 Z M307.73006,294.750059 L329.134652,294.750059 L329.134652,298.367101 L303.665827,298.367101 L303.665827,258.348415 L328.458196,258.348415 L328.458196,261.965457 L307.73006,261.965457 L307.73006,275.756461 L327.099786,275.756461 L327.099786,279.312943 L307.73006,279.312943 L307.73006,294.750059 Z M448.757284,258.344561 L437.466527,258.344561 L437.466527,298.368753 L441.530759,298.368753 L441.530759,279.771542 L448.652791,279.771542 C456.775757,279.771542 462.253396,276.204049 462.253396,269.02502 C462.253396,261.84599 456.891249,258.344561 448.757284,258.344561 Z M448.421806,276.319662 L441.530759,276.319662 L441.530759,261.84599 L448.421806,261.84599 C454.570402,261.84599 458.189164,264.108706 458.189164,269.02502 C458.189164,273.776172 454.74639,276.319662 448.421806,276.319662 Z M574.652803,298.368202 L570.588571,298.368202 L570.588571,258.344011 L594.698985,258.344011 L594.698985,261.966558 L574.652803,261.966558 L574.652803,275.86767 L593.291078,275.86767 L593.291078,279.435163 L574.652803,279.435163 L574.652803,298.368202 Z M717.872183,279.313494 C723.690801,278.691385 728.096011,274.95873 728.096011,269.023918 C728.096011,261.228285 722.343389,258.348966 714.42941,258.348966 L702.693182,258.348966 L702.693182,298.367652 L706.751915,298.367652 L706.751915,279.660334 L713.527469,279.660334 L724.587242,298.367652 L729.558915,298.367652 L717.872183,279.313494 Z M706.751915,276.147894 L706.751915,261.844889 L713.97294,261.844889 C720.022542,261.844889 724.048277,263.771776 724.048277,269.023918 C724.048277,273.775071 720.314023,276.147894 713.807951,276.147894 L706.751915,276.147894 Z M855.569377,257.327716 C843.646161,257.327716 834.725748,266.202406 834.725748,278.352803 C834.725748,290.508706 843.646161,299.383396 855.569377,299.383396 C867.481593,299.383396 876.402007,290.508706 876.402007,278.352803 C876.402007,266.202406 867.481593,257.327716 855.569377,257.327716 Z M855.569377,295.760849 C845.290553,295.760849 839.015466,287.678935 839.015466,278.352803 C839.015466,269.026671 845.290553,260.889704 855.569377,260.889704 C865.848201,260.889704 872.112289,269.026671 872.112289,278.352803 C872.112289,287.678935 865.848201,295.760849 855.569377,295.760849 Z M1015.56375,265.529096 C1012.78094,262.583712 1008.95869,260.888052 1003.98701,260.888052 C993.708191,260.888052 987.383607,269.02502 987.383607,278.351152 C987.383607,287.677284 993.708191,295.759197 1003.98701,295.759197 C1008.49672,295.759197 1012.46196,294.691152 1014.77181,293.171664 L1014.77181,281.015761 L1005.45542,281.015761 L1005.45542,277.448268 L1018.84154,277.448268 L1018.84154,295.483928 C1014.48582,298.082472 1009.34916,299.381745 1003.93202,299.381745 C991.849313,299.381745 983.099389,290.507055 983.099389,278.351152 C983.099389,266.200754 992.008803,257.326064 1003.93202,257.326064 C1010.2511,257.326064 1015.00279,259.363059 1018.37957,262.69382 L1015.56375,265.529096 Z" id="Combined-Shape" fill="url(#linearGradient-1)"></path>
    </g>
</svg>